<svg xmlns="http://www.w3.org/2000/svg" xmlns:xlink="http://www.w3.org/1999/xlink" width="500" zoomAndPan="magnify" viewBox="0 0 375 374.999991" height="500" preserveAspectRatio="xMidYMid meet" version="1.0"><defs><g/><clipPath id="df160ebbbe"><path d="M 37.5 142.730469 L 127.5 142.730469 L 127.5 231.980469 L 37.5 231.980469 Z M 37.5 142.730469 " clip-rule="nonzero"/></clipPath></defs><g clip-path="url(#df160ebbbe)"><path fill="#38b6ff" d="M 89.621094 172.136719 L 77.921875 164.117188 L 100.070312 164.117188 L 91.59375 195.761719 C 89.375 204.046875 82.171875 210.875 72.433594 210.875 L 43.246094 210.875 L 45.394531 202.851562 L 72.433594 202.851562 C 78.042969 202.851562 82.429688 198.96875 83.847656 193.683594 Z M 81.503906 150.75 L 83.652344 142.730469 L 127.472656 142.730469 L 112.707031 197.835938 C 106.550781 220.816406 92.246094 232.261719 68.851562 232.261719 L 37.515625 232.261719 L 39.664062 224.238281 L 68.851562 224.238281 C 84.515625 224.238281 98.757812 218.917969 104.960938 195.761719 L 117.019531 150.75 Z M 81.503906 150.75 " fill-opacity="1" fill-rule="evenodd"/></g><g fill="#ffffff" fill-opacity="1"><g transform="translate(127.490447, 215.243217)"><g><path d="M 18.5 -21.984375 L 18.5 -7.8125 C 18.5 -5.113281 17.769531 -3.066406 16.3125 -1.671875 C 14.851562 -0.285156 12.71875 0.40625 9.90625 0.40625 C 7.101562 0.40625 4.972656 -0.285156 3.515625 -1.671875 C 2.054688 -3.066406 1.328125 -5.113281 1.328125 -7.8125 L 1.328125 -21.984375 L 6.34375 -21.984375 L 6.34375 -9.28125 C 6.34375 -7.5 6.625 -6.257812 7.1875 -5.5625 C 7.75 -4.875 8.660156 -4.53125 9.921875 -4.53125 C 11.179688 -4.53125 12.085938 -4.875 12.640625 -5.5625 C 13.203125 -6.257812 13.484375 -7.5 13.484375 -9.28125 L 13.484375 -21.984375 Z M 18.5 -21.984375 "/></g></g></g><g fill="#ffffff" fill-opacity="1"><g transform="translate(148.654325, 215.243217)"><g><path d="M 6.609375 -13.640625 L 6.609375 0 L 1.59375 0 L 1.59375 -21.984375 L 6.609375 -21.984375 L 15.359375 -8.34375 L 15.40625 -8.34375 L 15.40625 -21.984375 L 20.421875 -21.984375 L 20.421875 0 L 15.40625 0 L 6.65625 -13.640625 Z M 6.609375 -13.640625 "/></g></g></g><g fill="#ffffff" fill-opacity="1"><g transform="translate(172.003871, 215.243217)"><g><path d="M 6.609375 -13.640625 L 6.609375 0 L 1.59375 0 L 1.59375 -21.984375 L 6.609375 -21.984375 L 15.359375 -8.34375 L 15.40625 -8.34375 L 15.40625 -21.984375 L 20.421875 -21.984375 L 20.421875 0 L 15.40625 0 L 6.65625 -13.640625 Z M 6.609375 -13.640625 "/></g></g></g><g fill="#ffffff" fill-opacity="1"><g transform="translate(195.353414, 215.243217)"><g><path d="M 18.5 -21.984375 L 18.5 -7.8125 C 18.5 -5.113281 17.769531 -3.066406 16.3125 -1.671875 C 14.851562 -0.285156 12.71875 0.40625 9.90625 0.40625 C 7.101562 0.40625 4.972656 -0.285156 3.515625 -1.671875 C 2.054688 -3.066406 1.328125 -5.113281 1.328125 -7.8125 L 1.328125 -21.984375 L 6.34375 -21.984375 L 6.34375 -9.28125 C 6.34375 -7.5 6.625 -6.257812 7.1875 -5.5625 C 7.75 -4.875 8.660156 -4.53125 9.921875 -4.53125 C 11.179688 -4.53125 12.085938 -4.875 12.640625 -5.5625 C 13.203125 -6.257812 13.484375 -7.5 13.484375 -9.28125 L 13.484375 -21.984375 Z M 18.5 -21.984375 "/></g></g></g></svg>